<svg width="779" height="1024" viewBox="0 0 779 1024" fill="none" xmlns="http://www.w3.org/2000/svg">
<rect x="143" width="500" height="1024" fill="#F4A0A7"/>
<path opacity="0.6" d="M134.193 8.24406C129.023 28.4512 138.748 42.1696 162.645 48.5505C191.662 56.2989 204.468 42.0073 205.505 21.9227C206.541 1.8381 204.941 -19.1551 171.364 -15.0346C158.281 -13.4292 137.899 -6.23783 134.193 8.24406Z" fill="#F2DBD7"/>
<path opacity="0.6" d="M575.376 109.892C588.828 140.048 610.835 145.955 639.916 127.384C675.23 104.832 674.615 73.4367 657.254 47.9784C639.893 22.5201 619.136 -1.13702 590.242 40.8029C578.984 57.1436 565.735 88.2807 575.376 109.892Z" fill="#F2DBD7"/>
<path opacity="0.6" d="M466.532 2.01946C473.985 18.7266 486.178 21.9996 502.29 11.7103C521.855 -0.78396 521.514 -18.1782 511.895 -32.2829C502.277 -46.3876 490.777 -59.4945 474.769 -36.2584C468.532 -27.2051 461.191 -9.95413 466.532 2.01946Z" fill="#F2DBD7"/>
<path opacity="0.6" d="M112.491 369.769C132.516 414.659 165.276 423.453 208.567 395.807C261.135 362.237 260.22 315.501 234.376 277.603C208.532 239.706 177.633 204.49 134.621 266.922C117.863 291.247 98.1396 337.598 112.491 369.769Z" fill="#F2DBD7"/>
<path opacity="0.6" d="M540.846 610.357C574.28 685.305 628.975 699.987 701.253 653.83C789.02 597.781 787.493 519.751 744.344 456.478C701.195 393.205 649.607 334.408 577.794 438.644C549.815 479.257 516.885 556.644 540.846 610.357Z" fill="#F2DBD7"/>
<path opacity="0.6" d="M28.1322 1132.81C94.247 1252.34 204.247 1274.94 350.726 1199.74C528.595 1108.42 526.846 983.404 440.949 882.743C355.052 782.082 252.068 688.739 105.538 857.004C48.4466 922.563 -19.2505 1047.14 28.1322 1132.81Z" fill="#F2DBD7"/>
<path d="M260.6 89.26V96.58H263V92.44L277.16 91.9V112C272.88 112.36 267.12 112.54 259.88 112.54C252.68 112.54 247.18 110.72 243.38 107.08C239.62 103.44 237.74 98.04 237.74 90.88C237.74 83.72 239.6 78.46 243.32 75.1C247.04 71.74 252.58 70.06 259.94 70.06C262.86 70.06 265.72 70.2 268.52 70.48C271.32 70.76 273.4 71.04 274.76 71.32L276.74 71.74V89.26H260.6ZM289.511 79.48C286.471 79.48 284.231 78.88 282.791 77.68C281.351 76.48 280.631 74.56 280.631 71.92C280.631 69.28 281.351 67.38 282.791 66.22C284.271 65.06 286.511 64.48 289.511 64.48C295.511 64.48 298.511 66.9 298.511 71.74C298.511 74.5 297.771 76.48 296.291 77.68C294.811 78.88 292.551 79.48 289.511 79.48ZM280.631 112V80.86H298.511V112H280.631ZM319.898 112H302.018V76.54H317.078L317.678 80.92C317.758 80.8 317.858 80.64 317.978 80.44C318.098 80.24 318.438 79.9 318.998 79.42C319.558 78.9 320.198 78.44 320.918 78.04C322.918 77.04 325.438 76.54 328.478 76.54V95.62L319.898 94.78V112ZM330.67 103.18V67.3H348.67V96.58H349.93V111.34C347.81 112.18 344.85 112.6 341.05 112.6C337.29 112.6 334.61 111.82 333.01 110.26C331.45 108.7 330.67 106.34 330.67 103.18ZM368.844 75.94C372.004 75.94 374.844 76.12 377.364 76.48C379.924 76.84 381.684 77.2 382.644 77.56L384.024 78.1V93.1C381.304 91.7 377.244 91 371.844 91V92.44C376.804 92.92 380.204 93.78 382.044 95.02C383.884 96.26 384.804 98.52 384.804 101.8C384.804 105.08 383.584 107.7 381.144 109.66C378.704 111.62 374.444 112.6 368.364 112.6C365.124 112.6 362.244 112.42 359.724 112.06C357.204 111.7 355.484 111.34 354.564 110.98L353.184 110.44V97.42C354.304 97.98 356.024 98.5 358.344 98.98C360.704 99.42 363.124 99.64 365.604 99.64V98.2C361.324 97.8 358.084 96.82 355.884 95.26C353.684 93.7 352.584 91.18 352.584 87.7C352.584 84.18 353.924 81.34 356.604 79.18C359.284 77.02 363.364 75.94 368.844 75.94ZM410.893 89.26V96.58H413.293V92.44L427.453 91.9V112C423.173 112.36 417.413 112.54 410.173 112.54C402.973 112.54 397.473 110.72 393.673 107.08C389.913 103.44 388.033 98.04 388.033 90.88C388.033 83.72 389.893 78.46 393.613 75.1C397.333 71.74 402.873 70.06 410.233 70.06C413.153 70.06 416.013 70.2 418.813 70.48C421.613 70.76 423.693 71.04 425.053 71.32L427.033 71.74V89.26H410.893ZM466.144 89.32L465.844 96.7L467.344 96.64V110.26C466.624 110.86 465.384 111.4 463.624 111.88C461.864 112.36 460.204 112.6 458.644 112.6C457.084 112.6 455.844 112.46 454.924 112.18C454.004 111.9 453.324 111.6 452.884 111.28C452.444 110.92 452.104 110.52 451.864 110.08C451.504 109.44 451.324 108.9 451.324 108.46C449.124 111.22 445.624 112.6 440.824 112.6C434.224 112.6 430.924 109.8 430.924 104.2C430.924 100.84 432.204 98.46 434.764 97.06C437.324 95.62 441.804 94.76 448.204 94.48C448.204 93.08 446.664 92.38 443.584 92.38C441.504 92.38 439.504 92.64 437.584 93.16C435.704 93.68 434.344 94.2 433.504 94.72L432.184 95.5V79.72C432.544 79.44 433.084 79.1 433.804 78.7C434.524 78.26 436.224 77.7 438.904 77.02C441.584 76.3 444.524 75.94 447.724 75.94C454.124 75.94 458.784 77.02 461.704 79.18C464.664 81.34 466.144 84.72 466.144 89.32ZM449.164 98.86V96.46L445.744 97.42V98.86C445.744 99.38 445.904 99.8 446.224 100.12C446.584 100.44 447.004 100.6 447.484 100.6C448.004 100.6 448.404 100.44 448.684 100.12C449.004 99.8 449.164 99.38 449.164 98.86ZM487.396 92.98V112H470.416V76.54H485.476L486.076 80.92C486.236 80.48 486.596 79.94 487.156 79.3C487.716 78.66 488.316 78.12 488.956 77.68C490.716 76.52 493.056 75.94 495.976 75.94C499.896 75.94 502.836 77.02 504.796 79.18C506.796 81.34 507.796 84.48 507.796 88.6V112H490.816V92.98C490.816 92.5 490.636 92.1 490.276 91.78C489.956 91.42 489.556 91.24 489.076 91.24C488.596 91.24 488.196 91.42 487.876 91.78C487.556 92.1 487.396 92.5 487.396 92.98ZM534.596 101.38H537.236C543.356 101.38 546.416 103.92 546.416 109C546.416 111.68 545.456 113.78 543.536 115.3C541.616 116.82 538.236 117.58 533.396 117.58H523.496C518.456 117.58 514.996 116.92 513.116 115.6C511.276 114.28 510.356 112.52 510.356 110.32C510.356 105.88 512.676 103.66 517.316 103.66H518.636C517.956 103.54 517.336 103.28 516.776 102.88C516.216 102.48 515.936 101.98 515.936 101.38C515.936 100.18 516.916 99.4 518.876 99.04C516.396 99.04 514.416 98.2 512.936 96.52C511.456 94.84 510.716 92.4 510.716 89.2C510.716 84.76 511.856 81.54 514.136 79.54C516.456 77.5 520.216 76.48 525.416 76.48H546.236V93.28H544.196C543.556 97.8 540.356 100.06 534.596 100.06V101.38ZM531.476 105.58H524.876C524.356 105.58 523.936 105.74 523.616 106.06C523.296 106.34 523.136 106.74 523.136 107.26C523.136 107.74 523.296 108.16 523.616 108.52C523.936 108.84 524.356 109 524.876 109H531.476C531.996 109 532.416 108.84 532.736 108.52C533.056 108.16 533.216 107.74 533.216 107.26C533.216 106.74 533.056 106.34 532.736 106.06C532.416 105.74 531.996 105.58 531.476 105.58ZM526.436 91.66V95.38C526.436 96.5 526.996 97.06 528.116 97.06C528.596 97.06 528.996 96.9 529.316 96.58C529.676 96.26 529.856 95.86 529.856 95.38V91.66C529.856 91.14 529.676 90.72 529.316 90.4C528.996 90.08 528.576 89.92 528.056 89.92C527.576 89.92 527.176 90.08 526.856 90.4C526.576 90.72 526.436 91.14 526.436 91.66Z" fill="#F4A0A7"/>
</svg>
