<svg width="375" height="150" viewBox="0 0 375 150" fill="none" xmlns="http://www.w3.org/2000/svg">
<path opacity="0.5" d="M55.6002 106.26V113.58H58.0002V109.44L72.1602 108.9V129C67.8802 129.36 62.1202 129.54 54.8802 129.54C47.6802 129.54 42.1802 127.72 38.3802 124.08C34.6202 120.44 32.7402 115.04 32.7402 107.88C32.7402 100.72 34.6002 95.4599 38.3202 92.0999C42.0402 88.7399 47.5802 87.0599 54.9402 87.0599C57.8602 87.0599 60.7202 87.1999 63.5202 87.4799C66.3202 87.7599 68.4002 88.0399 69.7602 88.3199L71.7402 88.7399V106.26H55.6002ZM84.5108 96.4799C81.4708 96.4799 79.2308 95.8799 77.7908 94.6799C76.3508 93.4799 75.6308 91.5599 75.6308 88.9199C75.6308 86.2799 76.3508 84.3799 77.7908 83.2199C79.2708 82.0599 81.5108 81.4799 84.5108 81.4799C90.5108 81.4799 93.5108 83.8999 93.5108 88.7399C93.5108 91.4999 92.7708 93.4799 91.2908 94.6799C89.8108 95.8799 87.5508 96.4799 84.5108 96.4799ZM75.6308 129V97.8599H93.5108V129H75.6308ZM114.898 129H97.0175V93.5399H112.078L112.678 97.9199C112.758 97.7999 112.858 97.6399 112.978 97.4399C113.098 97.2399 113.438 96.8999 113.998 96.4199C114.558 95.8999 115.198 95.4399 115.918 95.0399C117.918 94.0399 120.438 93.5399 123.478 93.5399V112.62L114.898 111.78V129ZM125.67 120.18V84.2999H143.67V113.58H144.93V128.34C142.81 129.18 139.85 129.6 136.05 129.6C132.29 129.6 129.61 128.82 128.01 127.26C126.45 125.7 125.67 123.34 125.67 120.18ZM163.844 92.9399C167.004 92.9399 169.844 93.1199 172.364 93.4799C174.924 93.8399 176.684 94.1999 177.644 94.5599L179.024 95.0999V110.1C176.304 108.7 172.244 108 166.844 108V109.44C171.804 109.92 175.204 110.78 177.044 112.02C178.884 113.26 179.804 115.52 179.804 118.8C179.804 122.08 178.584 124.7 176.144 126.66C173.704 128.62 169.444 129.6 163.364 129.6C160.124 129.6 157.244 129.42 154.724 129.06C152.204 128.7 150.484 128.34 149.564 127.98L148.184 127.44V114.42C149.304 114.98 151.024 115.5 153.344 115.98C155.704 116.42 158.124 116.64 160.604 116.64V115.2C156.324 114.8 153.084 113.82 150.884 112.26C148.684 110.7 147.584 108.18 147.584 104.7C147.584 101.18 148.924 98.3399 151.604 96.1799C154.284 94.0199 158.364 92.9399 163.844 92.9399ZM205.893 106.26V113.58H208.293V109.44L222.453 108.9V129C218.173 129.36 212.413 129.54 205.173 129.54C197.973 129.54 192.473 127.72 188.673 124.08C184.913 120.44 183.033 115.04 183.033 107.88C183.033 100.72 184.893 95.4599 188.613 92.0999C192.333 88.7399 197.873 87.0599 205.233 87.0599C208.153 87.0599 211.013 87.1999 213.813 87.4799C216.613 87.7599 218.693 88.0399 220.053 88.3199L222.033 88.7399V106.26H205.893ZM261.144 106.32L260.844 113.7L262.344 113.64V127.26C261.624 127.86 260.384 128.4 258.624 128.88C256.864 129.36 255.204 129.6 253.644 129.6C252.084 129.6 250.844 129.46 249.924 129.18C249.004 128.9 248.324 128.6 247.884 128.28C247.444 127.92 247.104 127.52 246.864 127.08C246.504 126.44 246.324 125.9 246.324 125.46C244.124 128.22 240.624 129.6 235.824 129.6C229.224 129.6 225.924 126.8 225.924 121.2C225.924 117.84 227.204 115.46 229.764 114.06C232.324 112.62 236.804 111.76 243.204 111.48C243.204 110.08 241.664 109.38 238.584 109.38C236.504 109.38 234.504 109.64 232.584 110.16C230.704 110.68 229.344 111.2 228.504 111.72L227.184 112.5V96.7199C227.544 96.4399 228.084 96.0999 228.804 95.6999C229.524 95.2599 231.224 94.6999 233.904 94.0199C236.584 93.2999 239.524 92.9399 242.724 92.9399C249.124 92.9399 253.784 94.0199 256.704 96.1799C259.664 98.3399 261.144 101.72 261.144 106.32ZM244.164 115.86V113.46L240.744 114.42V115.86C240.744 116.38 240.904 116.8 241.224 117.12C241.584 117.44 242.004 117.6 242.484 117.6C243.004 117.6 243.404 117.44 243.684 117.12C244.004 116.8 244.164 116.38 244.164 115.86ZM282.396 109.98V129H265.416V93.5399H280.476L281.076 97.9199C281.236 97.4799 281.596 96.9399 282.156 96.2999C282.716 95.6599 283.316 95.1199 283.956 94.6799C285.716 93.5199 288.056 92.9399 290.976 92.9399C294.896 92.9399 297.836 94.0199 299.796 96.1799C301.796 98.3399 302.796 101.48 302.796 105.6V129H285.816V109.98C285.816 109.5 285.636 109.1 285.276 108.78C284.956 108.42 284.556 108.24 284.076 108.24C283.596 108.24 283.196 108.42 282.876 108.78C282.556 109.1 282.396 109.5 282.396 109.98ZM329.596 118.38H332.236C338.356 118.38 341.416 120.92 341.416 126C341.416 128.68 340.456 130.78 338.536 132.3C336.616 133.82 333.236 134.58 328.396 134.58H318.496C313.456 134.58 309.996 133.92 308.116 132.6C306.276 131.28 305.356 129.52 305.356 127.32C305.356 122.88 307.676 120.66 312.316 120.66H313.636C312.956 120.54 312.336 120.28 311.776 119.88C311.216 119.48 310.936 118.98 310.936 118.38C310.936 117.18 311.916 116.4 313.876 116.04C311.396 116.04 309.416 115.2 307.936 113.52C306.456 111.84 305.716 109.4 305.716 106.2C305.716 101.76 306.856 98.5399 309.136 96.5399C311.456 94.4999 315.216 93.4799 320.416 93.4799H341.236V110.28H339.196C338.556 114.8 335.356 117.06 329.596 117.06V118.38ZM326.476 122.58H319.876C319.356 122.58 318.936 122.74 318.616 123.06C318.296 123.34 318.136 123.74 318.136 124.26C318.136 124.74 318.296 125.16 318.616 125.52C318.936 125.84 319.356 126 319.876 126H326.476C326.996 126 327.416 125.84 327.736 125.52C328.056 125.16 328.216 124.74 328.216 124.26C328.216 123.74 328.056 123.34 327.736 123.06C327.416 122.74 326.996 122.58 326.476 122.58ZM321.436 108.66V112.38C321.436 113.5 321.996 114.06 323.116 114.06C323.596 114.06 323.996 113.9 324.316 113.58C324.676 113.26 324.856 112.86 324.856 112.38V108.66C324.856 108.14 324.676 107.72 324.316 107.4C323.996 107.08 323.576 106.92 323.056 106.92C322.576 106.92 322.176 107.08 321.856 107.4C321.576 107.72 321.436 108.14 321.436 108.66Z" fill="#F2DBD7"/>
<path opacity="0.5" d="M55.6002 46.26V53.58H58.0002V49.44L72.1602 48.9V69C67.8802 69.36 62.1202 69.54 54.8802 69.54C47.6802 69.54 42.1802 67.72 38.3802 64.08C34.6202 60.44 32.7402 55.04 32.7402 47.88C32.7402 40.72 34.6002 35.46 38.3202 32.1C42.0402 28.74 47.5802 27.06 54.9402 27.06C57.8602 27.06 60.7202 27.2 63.5202 27.48C66.3202 27.76 68.4002 28.04 69.7602 28.32L71.7402 28.74V46.26H55.6002ZM84.5108 36.48C81.4708 36.48 79.2308 35.88 77.7908 34.68C76.3508 33.48 75.6308 31.56 75.6308 28.92C75.6308 26.28 76.3508 24.38 77.7908 23.22C79.2708 22.06 81.5108 21.48 84.5108 21.48C90.5108 21.48 93.5108 23.9 93.5108 28.74C93.5108 31.5 92.7708 33.48 91.2908 34.68C89.8108 35.88 87.5508 36.48 84.5108 36.48ZM75.6308 69V37.86H93.5108V69H75.6308ZM114.898 69H97.0175V33.54H112.078L112.678 37.92C112.758 37.8 112.858 37.64 112.978 37.44C113.098 37.24 113.438 36.9 113.998 36.42C114.558 35.9 115.198 35.44 115.918 35.04C117.918 34.04 120.438 33.54 123.478 33.54V52.62L114.898 51.78V69ZM125.67 60.18V24.3H143.67V53.58H144.93V68.34C142.81 69.18 139.85 69.6 136.05 69.6C132.29 69.6 129.61 68.82 128.01 67.26C126.45 65.7 125.67 63.34 125.67 60.18ZM163.844 32.94C167.004 32.94 169.844 33.12 172.364 33.48C174.924 33.84 176.684 34.2 177.644 34.56L179.024 35.1V50.1C176.304 48.7 172.244 48 166.844 48V49.44C171.804 49.92 175.204 50.78 177.044 52.02C178.884 53.26 179.804 55.52 179.804 58.8C179.804 62.08 178.584 64.7 176.144 66.66C173.704 68.62 169.444 69.6 163.364 69.6C160.124 69.6 157.244 69.42 154.724 69.06C152.204 68.7 150.484 68.34 149.564 67.98L148.184 67.44V54.42C149.304 54.98 151.024 55.5 153.344 55.98C155.704 56.42 158.124 56.64 160.604 56.64V55.2C156.324 54.8 153.084 53.82 150.884 52.26C148.684 50.7 147.584 48.18 147.584 44.7C147.584 41.18 148.924 38.34 151.604 36.18C154.284 34.02 158.364 32.94 163.844 32.94ZM205.893 46.26V53.58H208.293V49.44L222.453 48.9V69C218.173 69.36 212.413 69.54 205.173 69.54C197.973 69.54 192.473 67.72 188.673 64.08C184.913 60.44 183.033 55.04 183.033 47.88C183.033 40.72 184.893 35.46 188.613 32.1C192.333 28.74 197.873 27.06 205.233 27.06C208.153 27.06 211.013 27.2 213.813 27.48C216.613 27.76 218.693 28.04 220.053 28.32L222.033 28.74V46.26H205.893ZM261.144 46.32L260.844 53.7L262.344 53.64V67.26C261.624 67.86 260.384 68.4 258.624 68.88C256.864 69.36 255.204 69.6 253.644 69.6C252.084 69.6 250.844 69.46 249.924 69.18C249.004 68.9 248.324 68.6 247.884 68.28C247.444 67.92 247.104 67.52 246.864 67.08C246.504 66.44 246.324 65.9 246.324 65.46C244.124 68.22 240.624 69.6 235.824 69.6C229.224 69.6 225.924 66.8 225.924 61.2C225.924 57.84 227.204 55.46 229.764 54.06C232.324 52.62 236.804 51.76 243.204 51.48C243.204 50.08 241.664 49.38 238.584 49.38C236.504 49.38 234.504 49.64 232.584 50.16C230.704 50.68 229.344 51.2 228.504 51.72L227.184 52.5V36.72C227.544 36.44 228.084 36.1 228.804 35.7C229.524 35.26 231.224 34.7 233.904 34.02C236.584 33.3 239.524 32.94 242.724 32.94C249.124 32.94 253.784 34.02 256.704 36.18C259.664 38.34 261.144 41.72 261.144 46.32ZM244.164 55.86V53.46L240.744 54.42V55.86C240.744 56.38 240.904 56.8 241.224 57.12C241.584 57.44 242.004 57.6 242.484 57.6C243.004 57.6 243.404 57.44 243.684 57.12C244.004 56.8 244.164 56.38 244.164 55.86ZM282.396 49.98V69H265.416V33.54H280.476L281.076 37.92C281.236 37.48 281.596 36.94 282.156 36.3C282.716 35.66 283.316 35.12 283.956 34.68C285.716 33.52 288.056 32.94 290.976 32.94C294.896 32.94 297.836 34.02 299.796 36.18C301.796 38.34 302.796 41.48 302.796 45.6V69H285.816V49.98C285.816 49.5 285.636 49.1 285.276 48.78C284.956 48.42 284.556 48.24 284.076 48.24C283.596 48.24 283.196 48.42 282.876 48.78C282.556 49.1 282.396 49.5 282.396 49.98ZM329.596 58.38H332.236C338.356 58.38 341.416 60.92 341.416 66C341.416 68.68 340.456 70.78 338.536 72.3C336.616 73.82 333.236 74.58 328.396 74.58H318.496C313.456 74.58 309.996 73.92 308.116 72.6C306.276 71.28 305.356 69.52 305.356 67.32C305.356 62.88 307.676 60.66 312.316 60.66H313.636C312.956 60.54 312.336 60.28 311.776 59.88C311.216 59.48 310.936 58.98 310.936 58.38C310.936 57.18 311.916 56.4 313.876 56.04C311.396 56.04 309.416 55.2 307.936 53.52C306.456 51.84 305.716 49.4 305.716 46.2C305.716 41.76 306.856 38.54 309.136 36.54C311.456 34.5 315.216 33.48 320.416 33.48H341.236V50.28H339.196C338.556 54.8 335.356 57.06 329.596 57.06V58.38ZM326.476 62.58H319.876C319.356 62.58 318.936 62.74 318.616 63.06C318.296 63.34 318.136 63.74 318.136 64.26C318.136 64.74 318.296 65.16 318.616 65.52C318.936 65.84 319.356 66 319.876 66H326.476C326.996 66 327.416 65.84 327.736 65.52C328.056 65.16 328.216 64.74 328.216 64.26C328.216 63.74 328.056 63.34 327.736 63.06C327.416 62.74 326.996 62.58 326.476 62.58ZM321.436 48.66V52.38C321.436 53.5 321.996 54.06 323.116 54.06C323.596 54.06 323.996 53.9 324.316 53.58C324.676 53.26 324.856 52.86 324.856 52.38V48.66C324.856 48.14 324.676 47.72 324.316 47.4C323.996 47.08 323.576 46.92 323.056 46.92C322.576 46.92 322.176 47.08 321.856 47.4C321.576 47.72 321.436 48.14 321.436 48.66Z" fill="#F2DBD7"/>
<path d="M29.5199 75.712V84.496H32.3999V79.528L49.3919 78.88V103C44.2559 103.432 37.3439 103.648 28.6559 103.648C20.0159 103.648 13.4159 101.464 8.85594 97.096C4.34394 92.728 2.08794 86.248 2.08794 77.656C2.08794 69.064 4.31994 62.752 8.78394 58.72C13.2479 54.688 19.8959 52.672 28.7279 52.672C32.2319 52.672 35.6639 52.84 39.0239 53.176C42.3839 53.512 44.8799 53.848 46.5119 54.184L48.8879 54.688V75.712H29.5199ZM64.2127 63.976C60.5647 63.976 57.8767 63.256 56.1487 61.816C54.4207 60.376 53.5567 58.072 53.5567 54.904C53.5567 51.736 54.4207 49.456 56.1487 48.064C57.9247 46.672 60.6127 45.976 64.2127 45.976C71.4127 45.976 75.0127 48.88 75.0127 54.688C75.0127 58 74.1247 60.376 72.3487 61.816C70.5727 63.256 67.8607 63.976 64.2127 63.976ZM53.5567 103V65.632H75.0127V103H53.5567ZM100.677 103H79.2208V60.448H97.2928L98.0128 65.704C98.1088 65.56 98.2288 65.368 98.3728 65.128C98.5168 64.888 98.9248 64.48 99.5968 63.904C100.269 63.28 101.037 62.728 101.901 62.248C104.301 61.048 107.325 60.448 110.973 60.448V83.344L100.677 82.336V103ZM113.604 92.416V49.36H135.204V84.496H136.716V102.208C134.172 103.216 130.62 103.72 126.06 103.72C121.548 103.72 118.332 102.784 116.412 100.912C114.54 99.04 113.604 96.208 113.604 92.416ZM159.412 59.728C163.204 59.728 166.612 59.944 169.636 60.376C172.708 60.808 174.82 61.24 175.972 61.672L177.628 62.32V80.32C174.364 78.64 169.492 77.8 163.012 77.8V79.528C168.964 80.104 173.044 81.136 175.252 82.624C177.46 84.112 178.564 86.824 178.564 90.76C178.564 94.696 177.1 97.84 174.172 100.192C171.244 102.544 166.132 103.72 158.836 103.72C154.948 103.72 151.492 103.504 148.468 103.072C145.444 102.64 143.38 102.208 142.276 101.776L140.62 101.128V85.504C141.964 86.176 144.028 86.8 146.812 87.376C149.644 87.904 152.548 88.168 155.524 88.168V86.44C150.388 85.96 146.5 84.784 143.86 82.912C141.22 81.04 139.9 78.016 139.9 73.84C139.9 69.616 141.508 66.208 144.724 63.616C147.94 61.024 152.836 59.728 159.412 59.728ZM209.872 75.712V84.496H212.752V79.528L229.744 78.88V103C224.608 103.432 217.696 103.648 209.008 103.648C200.368 103.648 193.768 101.464 189.208 97.096C184.696 92.728 182.44 86.248 182.44 77.656C182.44 69.064 184.672 62.752 189.136 58.72C193.6 54.688 200.248 52.672 209.08 52.672C212.584 52.672 216.016 52.84 219.376 53.176C222.736 53.512 225.232 53.848 226.864 54.184L229.24 54.688V75.712H209.872ZM276.172 75.784L275.812 84.64L277.612 84.568V100.912C276.748 101.632 275.26 102.28 273.148 102.856C271.036 103.432 269.044 103.72 267.172 103.72C265.3 103.72 263.812 103.552 262.708 103.216C261.604 102.88 260.788 102.52 260.26 102.136C259.732 101.704 259.324 101.224 259.036 100.696C258.604 99.928 258.388 99.28 258.388 98.752C255.748 102.064 251.548 103.72 245.788 103.72C237.868 103.72 233.908 100.36 233.908 93.64C233.908 89.608 235.444 86.752 238.516 85.072C241.588 83.344 246.964 82.312 254.644 81.976C254.644 80.296 252.796 79.456 249.1 79.456C246.604 79.456 244.204 79.768 241.9 80.392C239.644 81.016 238.012 81.64 237.004 82.264L235.42 83.2V64.264C235.852 63.928 236.5 63.52 237.364 63.04C238.228 62.512 240.268 61.84 243.484 61.024C246.7 60.16 250.228 59.728 254.068 59.728C261.748 59.728 267.34 61.024 270.844 63.616C274.396 66.208 276.172 70.264 276.172 75.784ZM255.796 87.232V84.352L251.692 85.504V87.232C251.692 87.856 251.884 88.36 252.268 88.744C252.7 89.128 253.204 89.32 253.78 89.32C254.404 89.32 254.884 89.128 255.22 88.744C255.604 88.36 255.796 87.856 255.796 87.232ZM301.675 80.176V103H281.299V60.448H299.371L300.091 65.704C300.283 65.176 300.715 64.528 301.387 63.76C302.059 62.992 302.779 62.344 303.547 61.816C305.659 60.424 308.467 59.728 311.971 59.728C316.675 59.728 320.203 61.024 322.555 63.616C324.955 66.208 326.155 69.976 326.155 74.92V103H305.779V80.176C305.779 79.6 305.563 79.12 305.131 78.736C304.747 78.304 304.267 78.088 303.691 78.088C303.115 78.088 302.635 78.304 302.251 78.736C301.867 79.12 301.675 79.6 301.675 80.176ZM358.315 90.256H361.483C368.827 90.256 372.499 93.304 372.499 99.4C372.499 102.616 371.347 105.136 369.043 106.96C366.739 108.784 362.683 109.696 356.875 109.696H344.995C338.947 109.696 334.795 108.904 332.539 107.32C330.331 105.736 329.227 103.624 329.227 100.984C329.227 95.656 332.011 92.992 337.579 92.992H339.163C338.347 92.848 337.603 92.536 336.931 92.056C336.259 91.576 335.923 90.976 335.923 90.256C335.923 88.816 337.099 87.88 339.451 87.448C336.475 87.448 334.099 86.44 332.323 84.424C330.547 82.408 329.659 79.48 329.659 75.64C329.659 70.312 331.027 66.448 333.763 64.048C336.547 61.6 341.059 60.376 347.299 60.376H372.283V80.536H369.835C369.067 85.96 365.227 88.672 358.315 88.672V90.256ZM354.571 95.296H346.651C346.027 95.296 345.523 95.488 345.139 95.872C344.755 96.208 344.563 96.688 344.563 97.312C344.563 97.888 344.755 98.392 345.139 98.824C345.523 99.208 346.027 99.4 346.651 99.4H354.571C355.195 99.4 355.699 99.208 356.083 98.824C356.467 98.392 356.659 97.888 356.659 97.312C356.659 96.688 356.467 96.208 356.083 95.872C355.699 95.488 355.195 95.296 354.571 95.296ZM348.523 78.592V83.056C348.523 84.4 349.195 85.072 350.539 85.072C351.115 85.072 351.595 84.88 351.979 84.496C352.411 84.112 352.627 83.632 352.627 83.056V78.592C352.627 77.968 352.411 77.464 351.979 77.08C351.595 76.696 351.091 76.504 350.467 76.504C349.891 76.504 349.411 76.696 349.027 77.08C348.691 77.464 348.523 77.968 348.523 78.592Z" fill="#F0E5E3"/>
<path d="M29.5199 75.712V65.712H19.5199V75.712H29.5199ZM29.5199 84.496H19.5199V94.496H29.5199V84.496ZM32.3999 84.496V94.496H42.3999V84.496H32.3999ZM32.3999 79.528L32.0189 69.5353L22.3999 69.9021V79.528H32.3999ZM49.3919 78.88H59.3919V68.4914L49.0109 68.8873L49.3919 78.88ZM49.3919 103L50.2301 112.965L59.3919 112.194V103H49.3919ZM8.85594 97.096L1.90045 104.281L1.91945 104.299L1.93854 104.317L8.85594 97.096ZM8.78394 58.72L15.4868 66.141L15.4868 66.141L8.78394 58.72ZM39.0239 53.176L38.0289 63.1264L38.0289 63.1264L39.0239 53.176ZM46.5119 54.184L48.587 44.4017L48.5578 44.3955L48.5285 44.3894L46.5119 54.184ZM48.8879 54.688H58.8879V46.5867L50.963 44.9057L48.8879 54.688ZM48.8879 75.712V85.712H58.8879V75.712H48.8879ZM19.5199 75.712V84.496H39.5199V75.712H19.5199ZM29.5199 94.496H32.3999V74.496H29.5199V94.496ZM42.3999 84.496V79.528H22.3999V84.496H42.3999ZM32.781 89.5207L49.773 88.8727L49.0109 68.8873L32.0189 69.5353L32.781 89.5207ZM39.3919 78.88V103H59.3919V78.88H39.3919ZM48.5538 93.0352C43.8209 93.4333 37.2255 93.648 28.6559 93.648V113.648C37.4624 113.648 44.691 113.431 50.2301 112.965L48.5538 93.0352ZM28.6559 93.648C21.6283 93.648 17.8752 91.8879 15.7733 89.8745L1.93854 104.317C8.95666 111.04 18.4035 113.648 28.6559 113.648V93.648ZM15.8114 89.9112C13.8762 88.0377 12.0879 84.5654 12.0879 77.656H-7.91206C-7.91206 87.9306 -5.1883 97.4183 1.90045 104.281L15.8114 89.9112ZM12.0879 77.656C12.0879 70.6523 13.8934 67.5802 15.4868 66.141L2.08108 51.299C-5.25355 57.9238 -7.91206 67.4757 -7.91206 77.656H12.0879ZM15.4868 66.141C17.4143 64.4001 21.234 62.672 28.7279 62.672V42.672C18.5579 42.672 9.08161 44.9759 2.08107 51.299L15.4868 66.141ZM28.7279 62.672C31.9121 62.672 35.0117 62.8246 38.0289 63.1264L40.019 43.2256C36.3162 42.8553 32.5518 42.672 28.7279 42.672V62.672ZM38.0289 63.1264C41.3186 63.4553 43.3915 63.7513 44.4954 63.9786L48.5285 44.3894C46.3684 43.9447 43.4493 43.5687 40.019 43.2256L38.0289 63.1264ZM44.4369 63.9663L46.8129 64.4703L50.963 44.9057L48.587 44.4017L44.4369 63.9663ZM38.8879 54.688V75.712H58.8879V54.688H38.8879ZM48.8879 65.712H29.5199V85.712H48.8879V65.712ZM56.1487 61.816L49.7468 69.4982L49.7468 69.4982L56.1487 61.816ZM56.1487 48.064L49.9799 40.1934L49.9274 40.2346L49.8754 40.2765L56.1487 48.064ZM72.3487 61.816L78.6467 69.5836L78.6467 69.5836L72.3487 61.816ZM53.5567 103H43.5567V113H53.5567V103ZM53.5567 65.632V55.632H43.5567V65.632H53.5567ZM75.0127 65.632H85.0127V55.632H75.0127V65.632ZM75.0127 103V113H85.0127V103H75.0127ZM64.2127 53.976C63.0082 53.976 62.3337 53.853 62.048 53.7765C61.7801 53.7047 62.0698 53.7332 62.5505 54.1338L49.7468 69.4982C54.0936 73.1205 59.5821 73.976 64.2127 73.976V53.976ZM62.5505 54.1338C62.8208 54.359 63.0529 54.6166 63.2366 54.8819C63.4175 55.1432 63.5179 55.3633 63.568 55.4968C63.6586 55.7384 63.5567 55.617 63.5567 54.904H43.5567C43.5567 59.7754 44.9192 65.4752 49.7468 69.4982L62.5505 54.1338ZM63.5567 54.904C63.5567 54.1867 63.6598 54.087 63.5558 54.3616C63.4983 54.5132 63.3855 54.7564 63.1844 55.0413C62.98 55.3308 62.7221 55.6098 62.422 55.8515L49.8754 40.2765C44.9089 44.2773 43.5567 50.061 43.5567 54.904H63.5567ZM62.3175 55.9346C61.9032 56.2593 61.6927 56.2592 62.0033 56.1787C62.3285 56.0945 63.0231 55.976 64.2127 55.976V35.976C59.6172 35.976 54.2922 36.8135 49.9799 40.1934L62.3175 55.9346ZM64.2127 55.976C65.3732 55.976 66.0399 56.0965 66.341 56.1775C66.6219 56.253 66.4194 56.2481 66.0342 55.9373C65.843 55.7831 65.6468 55.5847 65.4701 55.3472C65.2941 55.1105 65.1731 54.883 65.0957 54.6955C64.9436 54.3276 65.0127 54.2511 65.0127 54.688H85.0127C85.0127 49.6055 83.3319 44.1948 78.5912 40.3707C74.2612 36.8778 68.8957 35.976 64.2127 35.976V55.976ZM65.0127 54.688C65.0127 55.4948 64.8989 55.6688 64.9795 55.4531C65.0255 55.33 65.1255 55.1072 65.3146 54.8363C65.5072 54.5603 65.7555 54.2878 66.0507 54.0484L78.6467 69.5836C83.6711 65.5097 85.0127 59.6128 85.0127 54.688H65.0127ZM66.0507 54.0484C66.4783 53.7017 66.7112 53.6926 66.4167 53.7708C66.1047 53.8536 65.4143 53.976 64.2127 53.976V73.976C68.8759 73.976 74.3008 73.1073 78.6467 69.5836L66.0507 54.0484ZM63.5567 103V65.632H43.5567V103H63.5567ZM53.5567 75.632H75.0127V55.632H53.5567V75.632ZM65.0127 65.632V103H85.0127V65.632H65.0127ZM75.0127 93H53.5567V113H75.0127V93ZM100.677 103V113H110.677V103H100.677ZM79.2208 103H69.2208V113H79.2208V103ZM79.2208 60.448V50.448H69.2208V60.448H79.2208ZM97.2928 60.448L107.2 59.0908L106.016 50.448H97.2928V60.448ZM98.0128 65.704L88.1053 67.0612L91.6885 93.2183L106.333 71.251L98.0128 65.704ZM99.5968 63.904L106.105 71.4966L106.256 71.3672L106.401 71.2319L99.5968 63.904ZM101.901 62.248L97.4286 53.3037L97.2343 53.4009L97.0443 53.5064L101.901 62.248ZM110.973 60.448H120.973V50.448H110.973V60.448ZM110.973 83.344L109.998 93.2964L120.973 94.3708V83.344H110.973ZM100.677 82.336L101.651 72.3836L90.6768 71.3092V82.336H100.677ZM100.677 93H79.2208V113H100.677V93ZM89.2208 103V60.448H69.2208V103H89.2208ZM79.2208 70.448H97.2928V50.448H79.2208V70.448ZM87.3853 61.8052L88.1053 67.0612L107.92 64.3468L107.2 59.0908L87.3853 61.8052ZM106.333 71.251C106.554 70.9201 106.765 70.5772 106.948 70.2729L89.7978 59.983C89.7501 60.0626 89.7162 60.1177 89.6948 60.152C89.6719 60.1886 89.6723 60.1869 89.6922 60.157L106.333 71.251ZM106.948 70.2729C106.758 70.5891 106.584 70.8356 106.46 71.0028C106.332 71.1744 106.221 71.3087 106.143 71.4012C105.991 71.5794 105.883 71.6881 105.858 71.7131C105.813 71.7583 105.872 71.6957 106.105 71.4966L93.0888 56.3114C92.6491 56.6883 92.169 57.1177 91.7157 57.5709C91.4088 57.8778 90.5342 58.7558 89.7978 59.983L106.948 70.2729ZM106.401 71.2319C106.439 71.1966 106.543 71.1087 106.757 70.9896L97.0443 53.5064C95.5307 54.3473 94.0982 55.3634 92.7922 56.5761L106.401 71.2319ZM106.373 71.1923C106.977 70.89 108.347 70.448 110.973 70.448V50.448C106.302 50.448 101.624 51.206 97.4286 53.3037L106.373 71.1923ZM100.973 60.448V83.344H120.973V60.448H100.973ZM111.947 73.3916L101.651 72.3836L99.7024 92.2884L109.998 93.2964L111.947 73.3916ZM90.6768 82.336V103H110.677V82.336H90.6768ZM113.604 49.36V39.36H103.604V49.36H113.604ZM135.204 49.36H145.204V39.36H135.204V49.36ZM135.204 84.496H125.204V94.496H135.204V84.496ZM136.716 84.496H146.716V74.496H136.716V84.496ZM136.716 102.208L140.399 111.505L146.716 109.002V102.208H136.716ZM116.412 100.912L109.34 107.983L109.385 108.028L109.431 108.072L116.412 100.912ZM123.604 92.416V49.36H103.604V92.416H123.604ZM113.604 59.36H135.204V39.36H113.604V59.36ZM125.204 49.36V84.496H145.204V49.36H125.204ZM135.204 94.496H136.716V74.496H135.204V94.496ZM126.716 84.496V102.208H146.716V84.496H126.716ZM133.032 92.9112C132.187 93.2461 130.086 93.72 126.06 93.72V113.72C131.153 113.72 136.156 113.186 140.399 111.505L133.032 92.9112ZM126.06 93.72C124.444 93.72 123.506 93.5467 123.058 93.4164C122.64 93.2946 122.921 93.2926 123.393 93.752L109.431 108.072C114.145 112.668 120.609 113.72 126.06 113.72V93.72ZM123.483 93.8409C123.783 94.1417 123.841 94.3691 123.8 94.2459C123.744 94.0741 123.604 93.5209 123.604 92.416H103.604C103.604 97.7064 104.91 103.553 109.34 107.983L123.483 93.8409ZM169.636 60.376L168.222 70.2755L168.233 70.277L168.244 70.2786L169.636 60.376ZM175.972 61.672L179.616 52.3596L179.55 52.3337L179.484 52.3087L175.972 61.672ZM177.628 62.32H187.628V55.4947L181.272 53.0076L177.628 62.32ZM177.628 80.32L173.052 89.2114L187.628 96.7139V80.32H177.628ZM163.012 77.8V67.8H153.012V77.8H163.012ZM163.012 79.528H153.012V88.607L162.049 89.4815L163.012 79.528ZM175.252 82.624L180.841 74.3313L180.841 74.3313L175.252 82.624ZM174.172 100.192L167.91 92.3958L167.91 92.3958L174.172 100.192ZM148.468 103.072L147.054 112.971L147.054 112.971L148.468 103.072ZM142.276 101.776L145.92 92.4636L145.92 92.4636L142.276 101.776ZM140.62 101.128H130.62V107.953L136.976 110.44L140.62 101.128ZM140.62 85.504L145.093 76.5597L130.62 69.3237V85.504H140.62ZM146.812 87.376L144.786 97.1686L144.883 97.1886L144.98 97.2066L146.812 87.376ZM155.524 88.168V98.168H165.524V88.168H155.524ZM155.524 86.44H165.524V77.331L156.455 76.4834L155.524 86.44ZM143.86 82.912L138.076 91.0693L143.86 82.912ZM144.724 63.616L138.449 55.83L138.449 55.83L144.724 63.616ZM159.412 69.728C162.839 69.728 165.762 69.9241 168.222 70.2755L171.051 50.4765C167.462 49.9639 163.57 49.728 159.412 49.728V69.728ZM168.244 70.2786C169.655 70.4771 170.734 70.6602 171.52 70.8211C172.384 70.9977 172.608 71.0903 172.461 71.0353L179.484 52.3087C177.18 51.4448 174.058 50.8994 171.029 50.4734L168.244 70.2786ZM172.328 70.9844L173.984 71.6324L181.272 53.0076L179.616 52.3596L172.328 70.9844ZM167.628 62.32V80.32H187.628V62.32H167.628ZM182.205 71.4286C176.822 68.6582 170.04 67.8 163.012 67.8V87.8C168.945 87.8 171.907 88.6218 173.052 89.2114L182.205 71.4286ZM153.012 77.8V79.528H173.012V77.8H153.012ZM162.049 89.4815C164.714 89.7393 166.689 90.0758 168.084 90.4287C169.578 90.8065 169.907 91.0806 169.664 90.9167L180.841 74.3313C176.36 71.3117 170.004 70.1579 163.976 69.5745L162.049 89.4815ZM169.664 90.9167C169.353 90.7073 169.074 90.4461 168.849 90.1616C168.63 89.8833 168.519 89.654 168.474 89.5444C168.433 89.4425 168.458 89.4685 168.493 89.6757C168.527 89.8842 168.564 90.236 168.564 90.76H188.564C188.564 85.1889 186.963 78.457 180.841 74.3313L169.664 90.9167ZM168.564 90.76C168.564 91.4667 168.439 91.7665 168.401 91.8487C168.369 91.9169 168.279 92.0995 167.91 92.3958L180.435 107.988C185.854 103.635 188.564 97.5587 188.564 90.76H168.564ZM167.91 92.3958C167.993 92.3292 167.534 92.7169 165.901 93.0925C164.303 93.4601 161.999 93.72 158.836 93.72V113.72C166.574 113.72 174.694 112.6 180.435 107.988L167.91 92.3958ZM158.836 93.72C155.301 93.72 152.332 93.5224 149.883 93.1725L147.054 112.971C150.653 113.486 154.596 113.72 158.836 113.72V93.72ZM149.883 93.1725C148.498 92.9747 147.453 92.7934 146.701 92.6361C145.864 92.4608 145.704 92.3789 145.92 92.4636L138.632 111.088C140.953 111.996 144.095 112.549 147.054 112.971L149.883 93.1725ZM145.92 92.4636L144.264 91.8156L136.976 110.44L138.632 111.088L145.92 92.4636ZM150.62 101.128V85.504H130.62V101.128H150.62ZM136.148 94.4483C138.677 95.7125 141.765 96.5435 144.786 97.1686L148.838 77.5834C147.653 77.3381 146.743 77.1073 146.07 76.9039C145.369 76.6918 145.091 76.5591 145.093 76.5597L136.148 94.4483ZM144.98 97.2066C148.436 97.851 151.954 98.168 155.524 98.168V78.168C153.143 78.168 150.853 77.957 148.645 77.5454L144.98 97.2066ZM165.524 88.168V86.44H145.524V88.168H165.524ZM156.455 76.4834C152.129 76.0791 150.242 75.1783 149.645 74.7547L138.076 91.0693C142.759 94.3897 148.648 95.8409 154.594 96.3966L156.455 76.4834ZM149.645 74.7547C149.71 74.8007 149.807 74.8846 149.903 75.0033C149.998 75.121 150.044 75.2134 150.055 75.2394C150.072 75.2768 149.9 74.904 149.9 73.84H129.9C129.9 80.2144 132.042 86.7906 138.076 91.0693L149.645 74.7547ZM149.9 73.84C149.9 72.5615 150.2 72.0462 151 71.402L138.449 55.83C132.817 60.3697 129.9 66.6705 129.9 73.84H149.9ZM151 71.402C151.655 70.8742 153.854 69.728 159.412 69.728V49.728C151.819 49.728 144.226 51.1738 138.449 55.83L151 71.402ZM209.872 75.712V65.712H199.872V75.712H209.872ZM209.872 84.496H199.872V94.496H209.872V84.496ZM212.752 84.496V94.496H222.752V84.496H212.752ZM212.752 79.528L212.37 69.5353L202.752 69.9021V79.528H212.752ZM229.744 78.88H239.744V68.4914L229.362 68.8873L229.744 78.88ZM229.744 103L230.582 112.965L239.744 112.194V103H229.744ZM189.208 97.096L182.252 104.281L182.271 104.299L182.29 104.317L189.208 97.096ZM189.136 58.72L195.838 66.141L195.838 66.141L189.136 58.72ZM219.376 53.176L218.38 63.1264L218.38 63.1264L219.376 53.176ZM226.864 54.184L228.939 44.4017L228.909 44.3955L228.88 44.3894L226.864 54.184ZM229.24 54.688H239.24V46.5867L231.315 44.9057L229.24 54.688ZM229.24 75.712V85.712H239.24V75.712H229.24ZM199.872 75.712V84.496H219.872V75.712H199.872ZM209.872 94.496H212.752V74.496H209.872V94.496ZM222.752 84.496V79.528H202.752V84.496H222.752ZM213.133 89.5207L230.125 88.8727L229.362 68.8873L212.37 69.5353L213.133 89.5207ZM219.744 78.88V103H239.744V78.88H219.744ZM228.905 93.0352C224.172 93.4333 217.577 93.648 209.008 93.648V113.648C217.814 113.648 225.043 113.431 230.582 112.965L228.905 93.0352ZM209.008 93.648C201.98 93.648 198.227 91.8879 196.125 89.8745L182.29 104.317C189.308 111.04 198.755 113.648 209.008 113.648V93.648ZM196.163 89.9112C194.228 88.0377 192.44 84.5654 192.44 77.656H172.44C172.44 87.9306 175.163 97.4183 182.252 104.281L196.163 89.9112ZM192.44 77.656C192.44 70.6523 194.245 67.5802 195.838 66.141L182.433 51.299C175.098 57.9238 172.44 67.4757 172.44 77.656H192.44ZM195.838 66.141C197.766 64.4001 201.586 62.672 209.08 62.672V42.672C198.909 42.672 189.433 44.9759 182.433 51.299L195.838 66.141ZM209.08 62.672C212.264 62.672 215.363 62.8246 218.38 63.1264L220.371 43.2256C216.668 42.8553 212.903 42.672 209.08 42.672V62.672ZM218.38 63.1264C221.67 63.4553 223.743 63.7513 224.847 63.9786L228.88 44.3894C226.72 43.9447 223.801 43.5687 220.371 43.2256L218.38 63.1264ZM224.788 63.9663L227.164 64.4703L231.315 44.9057L228.939 44.4017L224.788 63.9663ZM219.24 54.688V75.712H239.24V54.688H219.24ZM229.24 65.712H209.872V85.712H229.24V65.712ZM276.172 75.784L286.164 76.1902L286.172 75.9872V75.784H276.172ZM275.812 84.64L265.821 84.2338L265.38 95.0653L276.212 94.632L275.812 84.64ZM277.612 84.568H287.612V74.16L277.213 74.576L277.612 84.568ZM277.612 100.912L284.014 108.594L287.612 105.596V100.912H277.612ZM273.148 102.856L270.517 93.2084L270.517 93.2084L273.148 102.856ZM262.708 103.216L265.62 93.6493L265.62 93.6493L262.708 103.216ZM260.26 102.136L253.928 109.876L254.148 110.056L254.379 110.223L260.26 102.136ZM259.036 100.696L267.815 95.9075L267.784 95.8502L267.752 95.7934L259.036 100.696ZM258.388 98.752H268.388V70.1632L250.569 92.5189L258.388 98.752ZM238.516 85.072L243.314 93.8457L243.367 93.817L243.419 93.7878L238.516 85.072ZM254.644 81.976L255.081 91.9664L264.644 91.5481V81.976H254.644ZM241.9 80.392L239.286 70.7397L239.26 70.7467L239.234 70.7539L241.9 80.392ZM237.004 82.264L242.092 90.8733L242.18 90.8209L242.268 90.7666L237.004 82.264ZM235.42 83.2H225.42V100.724L240.508 91.8093L235.42 83.2ZM235.42 64.264L229.281 56.3705L225.42 59.3731V64.264H235.42ZM237.364 63.04L242.221 71.7816L242.402 71.6809L242.579 71.5728L237.364 63.04ZM243.484 61.024L245.944 70.7169L246.011 70.6997L246.079 70.6815L243.484 61.024ZM270.844 63.616L264.897 71.6555L264.923 71.6748L264.95 71.6939L270.844 63.616ZM255.796 84.352H265.796V71.1585L253.094 74.7241L255.796 84.352ZM251.692 85.504L248.99 75.8761L241.692 77.9245V85.504H251.692ZM252.268 88.744L245.197 95.8151L245.405 96.0229L245.625 96.2181L252.268 88.744ZM255.22 88.744L248.149 81.6729L247.914 81.9084L247.694 82.159L255.22 88.744ZM266.181 75.3778L265.821 84.2338L285.804 85.0462L286.164 76.1902L266.181 75.3778ZM276.212 94.632L278.012 94.56L277.213 74.576L275.413 74.648L276.212 94.632ZM267.612 84.568V100.912H287.612V84.568H267.612ZM271.21 93.2298C271.503 92.9861 271.726 92.8487 271.82 92.7943C271.917 92.7379 271.938 92.7337 271.856 92.7697C271.776 92.8044 271.627 92.8642 271.396 92.9428C271.167 93.0208 270.876 93.1104 270.517 93.2084L275.779 112.504C278.21 111.841 281.435 110.743 284.014 108.594L271.21 93.2298ZM270.517 93.2084C269.122 93.589 268.02 93.72 267.172 93.72V113.72C270.068 113.72 272.951 113.275 275.779 112.504L270.517 93.2084ZM267.172 93.72C266.523 93.72 266.067 93.6902 265.774 93.6571C265.468 93.6226 265.445 93.5962 265.62 93.6493L259.797 112.783C262.246 113.528 264.846 113.72 267.172 113.72V93.72ZM265.62 93.6493C265.346 93.5659 265.258 93.5244 265.305 93.5448C265.333 93.5573 265.421 93.5972 265.553 93.6706C265.684 93.7429 265.89 93.8653 266.142 94.0486L254.379 110.223C256.246 111.582 258.314 112.331 259.797 112.783L265.62 93.6493ZM266.593 94.3964C266.93 94.6721 267.408 95.1613 267.815 95.9075L250.257 105.485C251.24 107.287 252.535 108.736 253.928 109.876L266.593 94.3964ZM267.752 95.7934C267.763 95.8134 267.896 96.0483 268.037 96.4717C268.175 96.8842 268.388 97.6786 268.388 98.752H248.388C248.388 101.787 249.545 104.219 250.32 105.599L267.752 95.7934ZM250.569 92.5189C250.45 92.6671 249.671 93.72 245.788 93.72V113.72C253.425 113.72 261.046 111.461 266.208 104.985L250.569 92.5189ZM245.788 93.72C244.483 93.72 243.703 93.5779 243.312 93.4675C242.949 93.3647 243.06 93.3302 243.348 93.5749C243.672 93.8494 243.876 94.1846 243.958 94.3935C244.016 94.5416 243.908 94.3597 243.908 93.64H223.908C223.908 99.0109 225.568 104.718 230.408 108.825C234.934 112.665 240.652 113.72 245.788 113.72V93.72ZM243.908 93.64C243.908 92.8813 244.051 92.8698 243.867 93.2106C243.779 93.3757 243.655 93.5414 243.515 93.679C243.38 93.8124 243.291 93.8584 243.314 93.8457L233.718 76.2983C226.891 80.0317 223.908 86.622 223.908 93.64H243.908ZM243.419 93.7878C244.264 93.3126 247.536 92.2965 255.081 91.9664L254.207 71.9856C246.392 72.3275 238.913 73.3754 233.614 76.3562L243.419 93.7878ZM264.644 81.976C264.644 79.5985 263.947 77.1218 262.362 74.9599C260.858 72.9093 258.964 71.6951 257.396 70.9823C254.505 69.6681 251.393 69.456 249.1 69.456V89.456C250.504 89.456 250.163 89.6639 249.12 89.1897C248.476 88.8969 247.275 88.2076 246.234 86.7871C245.11 85.2552 244.644 83.5135 244.644 81.976H264.644ZM249.1 69.456C245.762 69.456 242.48 69.8746 239.286 70.7397L244.514 90.0443C245.928 89.6614 247.447 89.456 249.1 89.456V69.456ZM239.234 70.7539C236.771 71.4353 234.005 72.3596 231.741 73.7613L242.268 90.7666C242.048 90.9025 242.08 90.8504 242.556 90.6685C242.995 90.5007 243.649 90.2838 244.566 90.0301L239.234 70.7539ZM231.917 73.6547L230.333 74.5907L240.508 91.8093L242.092 90.8733L231.917 73.6547ZM245.42 83.2V64.264H225.42V83.2H245.42ZM241.56 72.1575C241.435 72.2544 241.413 72.2598 241.558 72.1683C241.691 72.0849 241.905 71.9568 242.221 71.7816L232.508 54.2984C231.491 54.8633 230.318 55.5635 229.281 56.3705L241.56 72.1575ZM242.579 71.5728C242.176 71.8189 241.939 71.9055 242.052 71.859C242.123 71.8296 242.316 71.7548 242.671 71.6379C243.386 71.4025 244.454 71.0948 245.944 70.7169L241.025 51.3311C239.298 51.7692 237.739 52.2055 236.414 52.6421C235.288 53.0129 233.628 53.604 232.15 54.5072L242.579 71.5728ZM246.079 70.6815C248.331 70.0765 250.974 69.728 254.068 69.728V49.728C249.483 49.728 245.069 50.2435 240.89 51.3665L246.079 70.6815ZM254.068 69.728C261.054 69.728 263.996 70.989 264.897 71.6555L276.791 55.5765C270.684 51.059 262.443 49.728 254.068 49.728V69.728ZM264.95 71.6939C265.267 71.9255 266.172 72.5499 266.172 75.784H286.172C286.172 67.9781 283.526 60.4905 276.739 55.5381L264.95 71.6939ZM265.796 87.232V84.352H245.796V87.232H265.796ZM253.094 74.7241L248.99 75.8761L254.395 95.1319L258.499 93.9799L253.094 74.7241ZM241.692 85.504V87.232H261.692V85.504H241.692ZM241.692 87.232C241.692 90.0794 242.655 93.2728 245.197 95.8151L259.339 81.6729C260.137 82.4708 260.772 83.4431 261.181 84.5181C261.581 85.5665 261.692 86.5155 261.692 87.232H241.692ZM245.625 96.2181C247.88 98.223 250.746 99.32 253.78 99.32V79.32C254.626 79.32 255.57 79.4653 256.53 79.8311C257.49 80.1967 258.287 80.7147 258.912 81.2699L245.625 96.2181ZM253.78 99.32C256.589 99.32 260.095 98.359 262.746 95.329L247.694 82.159C248.58 81.1466 249.689 80.3736 250.894 79.8912C252.053 79.4279 253.077 79.32 253.78 79.32V99.32ZM262.291 95.8151C264.834 93.2728 265.796 90.0794 265.796 87.232H245.796C245.796 86.5155 245.908 85.5665 246.307 84.5181C246.717 83.4431 247.351 82.4708 248.149 81.6729L262.291 95.8151ZM301.675 103V113H311.675V103H301.675ZM281.299 103H271.299V113H281.299V103ZM281.299 60.448V50.448H271.299V60.448H281.299ZM299.371 60.448L309.278 59.0908L308.094 50.448H299.371V60.448ZM300.091 65.704L290.183 67.0612L309.489 69.1214L300.091 65.704ZM301.387 63.76L308.913 70.3451L308.913 70.345L301.387 63.76ZM303.547 61.816L298.044 53.4664L297.962 53.5202L297.882 53.5756L303.547 61.816ZM322.555 63.616L315.149 70.3359L315.183 70.3732L315.217 70.4101L322.555 63.616ZM326.155 103V113H336.155V103H326.155ZM305.779 103H295.779V113H305.779V103ZM305.131 78.736L297.657 85.3796L298.048 85.8193L298.487 86.2101L305.131 78.736ZM302.251 78.736L309.322 85.8071L309.53 85.5993L309.725 85.3796L302.251 78.736ZM291.675 80.176V103H311.675V80.176H291.675ZM301.675 93H281.299V113H301.675V93ZM291.299 103V60.448H271.299V103H291.299ZM281.299 70.448H299.371V50.448H281.299V70.448ZM289.463 61.8052L290.183 67.0612L309.998 64.3468L309.278 59.0908L289.463 61.8052ZM309.489 69.1214C309.353 69.4961 309.214 69.7825 309.113 69.9726C309.011 70.1651 308.926 70.2985 308.879 70.369C308.793 70.4992 308.781 70.4952 308.913 70.3451L293.861 57.1749C292.929 58.2408 291.522 60.0054 290.693 62.2866L309.489 69.1214ZM308.913 70.345C309.087 70.1454 309.192 70.07 309.212 70.0564L297.882 53.5756C296.365 54.618 295.03 55.8386 293.861 57.175L308.913 70.345ZM309.05 70.1656C309.012 70.1909 309.695 69.728 311.971 69.728V49.728C307.238 49.728 302.306 50.6571 298.044 53.4664L309.05 70.1656ZM311.971 69.728C313.43 69.728 314.276 69.932 314.697 70.0867C315.06 70.2203 315.137 70.3225 315.149 70.3359L329.96 56.8961C325.124 51.5661 318.48 49.728 311.971 49.728V69.728ZM315.217 70.4101C315.325 70.5263 316.155 71.4851 316.155 74.92H336.155C336.155 68.4669 334.585 61.8897 329.892 56.8219L315.217 70.4101ZM316.155 74.92V103H336.155V74.92H316.155ZM326.155 93H305.779V113H326.155V93ZM315.779 103V80.176H295.779V103H315.779ZM315.779 80.176C315.779 76.7323 314.333 73.536 311.775 71.2619L298.487 86.2101C297.754 85.5583 297.023 84.6544 296.498 83.4876C295.972 82.32 295.779 81.168 295.779 80.176H315.779ZM312.605 72.0924C310.331 69.534 307.135 68.088 303.691 68.088V88.088C302.699 88.088 301.547 87.8947 300.379 87.3692C299.212 86.8442 298.309 86.1129 297.657 85.3796L312.605 72.0924ZM303.691 68.088C300.247 68.088 297.051 69.534 294.777 72.0924L309.725 85.3796C309.073 86.1129 308.169 86.8442 307.003 87.3692C305.835 87.8947 304.683 88.088 303.691 88.088V68.088ZM295.18 71.6649C292.798 74.0469 291.675 77.1264 291.675 80.176H311.675C311.675 81.0152 311.531 82.0291 311.104 83.0979C310.671 84.1784 310.038 85.0907 309.322 85.8071L295.18 71.6649ZM358.315 90.256H348.315V100.256H358.315V90.256ZM369.043 106.96L375.25 114.8L375.25 114.8L369.043 106.96ZM332.539 107.32L326.71 115.445L326.751 115.475L326.792 115.504L332.539 107.32ZM339.163 92.992V102.992L340.901 83.1442L339.163 92.992ZM336.931 92.056L342.743 83.9187L342.743 83.9187L336.931 92.056ZM339.451 87.448L341.257 97.2835L339.451 77.448V87.448ZM332.323 84.424L339.826 77.8137L339.826 77.8137L332.323 84.424ZM333.763 64.048L340.357 71.5656L340.366 71.5577L333.763 64.048ZM372.283 60.376H382.283V50.376H372.283V60.376ZM372.283 80.536V90.536H382.283V80.536H372.283ZM369.835 80.536V70.536H361.151L359.933 79.1341L369.835 80.536ZM358.315 88.672V78.672H348.315V88.672H358.315ZM345.139 95.872L351.724 103.398L351.974 103.179L352.21 102.943L345.139 95.872ZM345.139 98.824L337.665 105.468L337.86 105.687L338.068 105.895L345.139 98.824ZM356.083 98.824L363.154 105.895L363.362 105.687L363.557 105.468L356.083 98.824ZM356.083 95.872L349.012 102.943L349.247 103.179L349.498 103.398L356.083 95.872ZM351.979 84.496L345.335 77.0219L345.115 77.2171L344.908 77.4249L351.979 84.496ZM351.979 77.08L344.908 84.1511L345.115 84.3589L345.335 84.5541L351.979 77.08ZM349.027 77.08L341.956 70.0089L341.72 70.2444L341.501 70.4949L349.027 77.08ZM358.315 100.256H361.483V80.256H358.315V100.256ZM361.483 100.256C362.66 100.256 363.333 100.382 363.635 100.465C363.914 100.542 363.722 100.539 363.358 100.237C363.179 100.088 363.001 99.9021 362.845 99.686C362.69 99.4713 362.59 99.274 362.53 99.126C362.415 98.8396 362.499 98.8597 362.499 99.4H382.499C382.499 94.2697 380.864 88.7758 376.132 84.8474C371.756 81.2152 366.29 80.256 361.483 80.256V100.256ZM362.499 99.4C362.499 99.6074 362.48 99.7041 362.478 99.7125C362.478 99.7169 362.491 99.652 362.54 99.5444C362.59 99.4348 362.657 99.3269 362.729 99.2357C362.8 99.1464 362.847 99.1104 362.836 99.1195L375.25 114.8C380.197 110.884 382.499 105.342 382.499 99.4H362.499ZM362.836 99.1195C363.244 98.796 363.209 99.0014 362.079 99.2556C360.992 99.5001 359.308 99.696 356.875 99.696V119.696C363.073 119.696 370.129 118.854 375.25 114.8L362.836 99.1195ZM356.875 99.696H344.995V119.696H356.875V99.696ZM344.995 99.696C342.355 99.696 340.476 99.519 339.218 99.2791C337.865 99.021 337.801 98.7961 338.285 99.1359L326.792 115.504C329.532 117.428 332.672 118.391 335.471 118.925C338.365 119.477 341.586 119.696 344.995 119.696V99.696ZM338.368 99.1946C338.355 99.1853 338.649 99.4031 338.917 99.9155C339.19 100.438 339.227 100.867 339.227 100.984H319.227C319.227 106.957 321.974 112.048 326.71 115.445L338.368 99.1946ZM339.227 100.984C339.227 100.495 339.294 100.485 339.192 100.777C339.072 101.122 338.784 101.684 338.228 102.215C337.072 103.322 336.229 102.992 337.579 102.992V82.992C333.361 82.992 328.342 83.9941 324.401 87.7649C320.378 91.6145 319.227 96.6636 319.227 100.984H339.227ZM337.579 102.992H339.163V82.992H337.579V102.992ZM340.901 83.1442C341.548 83.2584 342.197 83.5288 342.743 83.9187L331.118 100.193C333.008 101.543 335.145 102.438 337.425 102.84L340.901 83.1442ZM342.743 83.9187C343.368 84.3652 344.218 85.1427 344.9 86.36C345.608 87.624 345.923 88.9886 345.923 90.256H325.923C325.923 94.7154 328.263 98.1536 331.118 100.193L342.743 83.9187ZM345.923 90.256C345.923 91.2995 345.699 92.5079 345.105 93.7064C344.519 94.892 343.733 95.7402 343.032 96.2982C341.791 97.2861 340.839 97.3602 341.257 97.2835L337.644 77.6125C335.71 77.9678 332.994 78.7259 330.577 80.6498C327.726 82.9188 325.923 86.3382 325.923 90.256H345.923ZM339.451 77.448C339.101 77.448 339.12 77.392 339.342 77.4862C339.446 77.5302 339.555 77.591 339.654 77.6637C339.753 77.7355 339.809 77.7943 339.826 77.8137L324.819 91.0343C328.711 95.4521 333.949 97.448 339.451 97.448V77.448ZM339.826 77.8137C340.231 78.2732 339.659 78.0789 339.659 75.64H319.659C319.659 80.8811 320.862 86.5428 324.819 91.0343L339.826 77.8137ZM339.659 75.64C339.659 71.8303 340.633 71.3236 340.357 71.5656L327.168 56.5304C321.42 61.5724 319.659 68.7937 319.659 75.64H339.659ZM340.366 71.5577C340.432 71.4999 341.954 70.376 347.299 70.376V50.376C340.163 50.376 332.662 51.7001 327.159 56.5383L340.366 71.5577ZM347.299 70.376H372.283V50.376H347.299V70.376ZM362.283 60.376V80.536H382.283V60.376H362.283ZM372.283 70.536H369.835V90.536H372.283V70.536ZM359.933 79.1341C359.887 79.4592 359.844 79.4102 359.981 79.1673C360.136 78.8939 360.372 78.6375 360.61 78.4697C360.817 78.3236 360.838 78.376 360.477 78.4672C360.1 78.5622 359.411 78.672 358.315 78.672V98.672C362.912 98.672 367.916 97.7947 372.148 94.8063C376.694 91.5951 379.035 86.8867 379.736 81.9379L359.933 79.1341ZM348.315 88.672V90.256H368.315V88.672H348.315ZM354.571 85.296H346.651V105.296H354.571V85.296ZM346.651 85.296C343.803 85.296 340.61 86.2587 338.068 88.8009L352.21 102.943C351.412 103.741 350.44 104.375 349.365 104.785C348.316 105.184 347.367 105.296 346.651 105.296V85.296ZM338.554 88.3462C335.524 90.9975 334.563 94.5034 334.563 97.312H354.563C354.563 98.0154 354.455 99.0397 353.991 100.198C353.509 101.404 352.736 102.512 351.724 103.398L338.554 88.3462ZM334.563 97.312C334.563 100.347 335.66 103.212 337.665 105.468L352.613 92.1804C353.168 92.805 353.686 93.6023 354.052 94.562C354.417 95.5224 354.563 96.4667 354.563 97.312H334.563ZM338.068 105.895C340.61 108.437 343.803 109.4 346.651 109.4V89.4C347.367 89.4 348.316 89.5117 349.365 89.9111C350.44 90.3206 351.412 90.9551 352.21 91.7529L338.068 105.895ZM346.651 109.4H354.571V89.4H346.651V109.4ZM354.571 109.4C357.418 109.4 360.612 108.437 363.154 105.895L349.012 91.7529C349.81 90.9551 350.782 90.3206 351.857 89.9111C352.905 89.5117 353.854 89.4 354.571 89.4V109.4ZM363.557 105.468C365.562 103.212 366.659 100.347 366.659 97.312H346.659C346.659 96.4667 346.804 95.5224 347.17 94.5621C347.535 93.6023 348.053 92.805 348.609 92.1804L363.557 105.468ZM366.659 97.312C366.659 94.5034 365.698 90.9975 362.668 88.3462L349.498 103.398C348.485 102.512 347.712 101.404 347.23 100.198C346.767 99.0397 346.659 98.0154 346.659 97.312H366.659ZM363.154 88.8009C360.612 86.2587 357.418 85.296 354.571 85.296V105.296C353.854 105.296 352.905 105.184 351.857 104.785C350.782 104.375 349.81 103.741 349.012 102.943L363.154 88.8009ZM338.523 78.592V83.056H358.523V78.592H338.523ZM338.523 83.056C338.523 85.2694 339.083 88.7663 341.956 91.6391C344.828 94.5119 348.325 95.072 350.539 95.072V75.072C351.408 75.072 353.897 75.2961 356.098 77.4969C358.299 79.6977 358.523 82.1866 358.523 83.056H338.523ZM350.539 95.072C353.588 95.072 356.668 93.949 359.05 91.5671L344.908 77.4249C345.624 76.7085 346.536 76.0754 347.617 75.6432C348.686 75.2157 349.7 75.072 350.539 75.072V95.072ZM358.622 91.9701C361.181 89.696 362.627 86.4997 362.627 83.056H342.627C342.627 82.064 342.82 80.912 343.345 79.7444C343.871 78.5776 344.602 77.6737 345.335 77.0219L358.622 91.9701ZM362.627 83.056V78.592H342.627V83.056H362.627ZM362.627 78.592C362.627 75.3676 361.373 72.0512 358.622 69.6059L345.335 84.5541C344.513 83.8235 343.776 82.8573 343.273 81.6852C342.779 80.532 342.627 79.4481 342.627 78.592H362.627ZM359.05 70.0089C356.508 67.4667 353.314 66.504 350.467 66.504V86.504C349.75 86.504 348.801 86.3923 347.753 85.9929C346.678 85.5834 345.705 84.9489 344.908 84.1511L359.05 70.0089ZM350.467 66.504C347.417 66.504 344.338 67.627 341.956 70.0089L356.098 84.1511C355.381 84.8675 354.469 85.5006 353.389 85.9328C352.32 86.3603 351.306 86.504 350.467 86.504V66.504ZM341.501 70.4949C339.234 73.0853 338.523 76.109 338.523 78.592H358.523C358.523 79.827 358.147 81.8427 356.552 83.6651L341.501 70.4949Z" fill="#F4A0A7"/>
</svg>
