<svg width="1440" height="1024" viewBox="0 0 1440 1024" fill="none" xmlns="http://www.w3.org/2000/svg">
<g clip-path="url(#clip0_2_2)">
<rect width="1440" height="1024" fill="#F8B2A8"/>
<rect width="1440" height="1024" fill="#F0E5E3"/>
<g opacity="0.2">
<path d="M1378.64 301.655C1424.89 339.813 1469.55 356.019 1515.37 301.655C1571.01 235.64 1531.23 166.35 1467.93 144.285C1412.02 124.796 1378.64 102.227 1348.3 194.617C1336.48 230.614 1345.5 274.308 1378.64 301.655Z" fill="#F8B2A8"/>
<path d="M1045 810.169C1117.11 869.671 1186.76 894.943 1258.2 810.169C1344.96 707.227 1298.78 583.195 1219.28 540.695C1139.78 498.195 1045 499.186 997.691 643.256C979.259 699.389 993.315 767.525 1045 810.169Z" fill="#F8B2A8"/>
<path d="M480.726 858.706C538.12 906.062 593.546 926.174 650.409 858.706C719.458 776.779 682.703 678.067 619.432 644.243C556.161 610.419 480.726 611.207 443.076 725.867C428.407 770.541 439.594 824.768 480.726 858.706Z" fill="#F8B2A8"/>
<path d="M494.998 209.169C567.113 268.671 636.756 293.943 708.205 209.169C794.965 106.227 748.782 -17.805 669.282 -60.305C589.782 -102.805 494.998 -101.814 447.691 42.2559C429.259 98.3885 443.315 166.525 494.998 209.169Z" fill="#F8B2A8"/>
<path d="M-86.62 1136.08C25.5911 1228.67 133.956 1267.99 245.13 1136.08C380.127 975.905 308.268 782.911 184.566 716.781C60.8641 650.651 -86.6202 652.193 -160.23 876.365C-188.909 963.708 -167.039 1069.73 -86.62 1136.08Z" fill="#F8B2A8"/>
<path d="M183 355C168.826 410.398 195.487 448.007 261 465.5C340.552 486.742 375.658 447.562 378.5 392.5C381.342 337.438 376.956 279.885 284.902 291.182C249.037 295.583 193.158 315.298 183 355Z" fill="#F8B2A8"/>
<path d="M1043.17 -17.4465C1029 37.9511 1055.66 75.5602 1121.17 93.0535C1200.72 114.296 1235.83 75.1153 1238.67 20.0534C1241.51 -35.0084 1237.13 -92.5612 1145.07 -81.265C1109.21 -76.8638 1053.33 -57.1486 1043.17 -17.4465Z" fill="#F8B2A8"/>
<path d="M1311.17 989.553C1297 1044.95 1323.66 1082.56 1389.17 1100.05C1468.72 1121.3 1503.83 1082.12 1506.67 1027.05C1509.51 971.992 1505.13 914.439 1413.07 925.735C1377.21 930.136 1321.33 949.851 1311.17 989.553Z" fill="#F8B2A8"/>
<path d="M151.608 -22.5166C269.566 109.475 36.4712 231.314 -85.4381 181.676C-346.201 75.5008 -20.6866 -215.309 151.608 -22.5166Z" fill="#F8B2A8"/>
</g>
</g>
<defs>
<clipPath id="clip0_2_2">
<rect width="1440" height="1024" fill="white"/>
</clipPath>
</defs>
</svg>
